<svg width="85" height="101" viewBox="0 0 85 101" fill="none" xmlns="http://www.w3.org/2000/svg">
<rect x="0.269531" y="0.423828" width="84.5047" height="100" rx="12" fill="#1C77FF"/>
<path d="M20.538 38.2277C20.2355 39.729 20.2747 41.7492 20.3661 43.2235C20.3739 43.3487 20.7481 43.3591 20.7952 43.2429C20.9474 42.8677 21.1179 42.6994 21.3096 42.3427C21.8311 41.3727 21.9823 40.7599 22.4669 39.7709C23.0701 38.54 23.3805 37.8265 24.1387 36.6846C24.7721 35.7306 25.1981 35.2432 25.939 34.3699L25.9466 34.3609C27.3662 32.6877 28.1838 31.724 29.9254 30.3835C31.1951 29.4062 31.9918 28.9666 33.3974 28.1974C34.6191 27.5289 35.3217 27.1776 36.6122 26.6543C38.1281 26.0396 39.0116 25.7647 40.5986 25.3684C41.8886 25.0463 42.6215 24.8801 43.9421 24.7254C46.037 24.4801 47.2359 24.6306 49.343 24.7254C50.7013 24.7865 51.4709 24.7782 52.815 24.9826C54.1398 25.1841 54.8765 25.364 56.1585 25.7542C56.4219 25.8343 56.7111 25.9328 57.0058 26.0392C58.5427 26.594 59.5019 28.0957 59.5019 29.7297V35.2192C59.5019 35.5454 59.2661 35.8238 58.9444 35.8774C58.8053 35.9006 58.6624 35.8791 58.5363 35.816L57.7016 35.3987L56.4157 34.8843C55.4845 34.5582 54.9368 34.4495 53.9724 34.2413C52.6811 33.9626 51.9443 33.8499 50.6289 33.727C48.1284 33.4932 46.684 33.49 44.1993 33.8556C43.1859 34.0047 42.6245 34.1358 41.6274 34.3699C40.3582 34.668 39.6446 34.8437 38.4125 35.2701C37.2845 35.6605 36.675 35.9443 35.5835 36.4274C34.5154 36.9002 33.9049 37.1476 32.883 37.7134C31.6766 38.3813 31.0186 38.8018 29.9254 39.6423C28.7979 40.5091 28.225 41.0744 27.2249 42.0856C26.3246 42.9959 25.838 43.5285 25.0388 44.5288C24.3428 45.4 23.9364 45.8848 23.3671 46.8435C22.9661 47.5188 22.48 48.5858 22.3641 48.8436C22.3468 48.8819 22.3308 48.9195 22.3151 48.9585C22.1822 49.2882 21.5131 50.9644 21.181 52.1159C20.7824 53.4976 20.5687 54.2873 20.4094 55.7165C20.1925 57.6636 20.2223 58.7981 20.538 60.7316C20.6177 61.2197 20.7833 61.9641 20.7946 62.0148L20.7959 62.0205L21.3096 64.3323L22.2343 66.8753C22.3036 67.0657 22.3868 67.2508 22.4833 67.4289L23.8208 69.8982C23.9467 70.1306 24.0946 70.3503 24.2626 70.5543L25.8104 72.4337L27.3611 74.2059C27.5271 74.3957 27.7103 74.5698 27.9081 74.726L30.054 76.4201L31.6763 77.7179C31.8802 77.8811 32.0992 78.0244 32.3303 78.1461L34.4261 79.2491L36.7408 80.2779L39.2878 81.204C39.4756 81.2723 39.6673 81.3267 39.8633 81.3662C40.4901 81.4924 41.9887 81.7884 43.0419 81.9496C44.2426 82.1334 44.9165 82.2501 46.1282 82.3354C48.2328 82.4835 49.4332 82.4489 51.5291 82.2068C52.948 82.0429 53.7443 81.9115 55.1297 81.5638C56.4083 81.243 57.1039 80.9804 58.3446 80.5351C59.6172 80.0782 60.338 79.8293 61.5594 79.2491C61.9347 79.0708 62.3614 78.8454 62.7784 78.6149C64.0349 77.9204 64.7688 76.5727 64.7599 75.1371L64.6503 57.4896C64.6482 57.1608 64.2893 56.9591 64.0073 57.1282L63.9986 57.1336C63.9316 57.1761 63.0577 57.7281 62.4596 58.0312C61.636 58.4484 61.1305 58.588 60.2735 58.9313C59.3731 59.292 58.8724 59.506 57.9588 59.8315C56.8666 60.2206 56.2582 60.4657 55.1297 60.7316C53.5534 61.1031 52.6301 61.131 51.0147 61.246C48.8608 61.3994 47.6217 61.5596 45.4852 61.246C44.7251 61.1345 44.3089 61.0145 43.5563 60.8602C42.1475 60.5715 41.3261 60.5246 39.9557 60.0887C38.8181 59.7268 38.1926 59.4684 37.1266 58.9313C36.2421 58.4857 35.7744 58.1799 34.9405 57.6454C33.8495 56.946 33.1901 56.598 32.2401 55.7165C31.5077 55.037 30.1826 55.4725 30.1826 56.4715V56.7993C30.1826 56.8489 30.1858 56.8983 30.1928 56.9475C30.2228 57.1559 30.3158 57.7604 30.4397 58.1598C30.8075 59.3443 31.3429 59.8867 32.1115 60.8602C33.2795 62.3398 34.1442 63.0286 35.7121 64.0751C37.244 65.0975 38.2168 65.5256 39.9557 66.1326C41.3241 66.6103 42.1256 66.8009 43.5563 67.0327C44.2955 67.1525 45.3691 67.242 45.8049 67.2755C45.9346 67.2855 46.0647 67.2882 46.1948 67.2849L51.0147 67.1613L54.399 66.6945C54.6286 66.6629 54.855 66.6119 55.0759 66.5421L55.9521 66.2654C58.0209 65.6121 60.2766 66.6847 60.6047 68.8293C60.8857 70.6659 60.8657 72.7456 59.7591 73.9768C58.2579 75.6471 54.5575 75.9777 53.8377 76.0269C53.755 76.0325 53.674 76.0387 53.5917 76.0475L50.2882 76.4015C50.1725 76.4139 50.0578 76.4305 49.9419 76.4417C49.6139 76.4733 48.7719 76.5185 47.0283 76.4201C44.8729 76.2984 41.6905 75.5597 41.0857 75.4157C41.0174 75.3994 40.9525 75.3818 40.8854 75.3611C40.3257 75.1885 37.523 74.301 35.8407 73.3338C33.0965 71.7561 31.6782 70.4785 29.7968 67.9329C28.2883 65.8919 27.5052 64.5951 26.8391 62.1462C26.2962 60.1499 26.1567 58.9357 26.3247 56.8738C26.5389 54.2462 27.105 52.7505 28.3822 50.4441C29.5069 48.4133 30.4166 47.4012 32.1115 45.8148C34.0944 43.9588 35.4523 43.1379 37.8982 41.957C41.222 40.3522 43.338 39.5862 47.0283 39.5137C49.3051 39.469 52.6245 40.2655 53.498 40.4864C53.6444 40.5234 53.788 40.5534 53.937 40.5777C54.7772 40.7144 57.8153 41.238 59.7591 41.957C62.0261 42.7954 64.6456 41.3484 64.6456 38.9313V25.981C64.6456 24.491 63.8429 23.1153 62.5138 22.4419C60.799 21.573 58.3631 20.4239 56.4157 19.8389C53.1501 18.8579 51.2096 18.4401 47.7999 18.4243C44.2911 18.4081 42.275 18.7888 38.9269 19.8389C36.139 20.7132 34.5784 21.3595 32.1115 22.9251C28.7223 25.0761 27.0116 26.7497 24.653 29.9978C22.5416 32.9054 21.2478 34.7052 20.538 38.2277Z" fill="url(#paint0_linear_3352_58756)"/>
<defs>
<linearGradient id="paint0_linear_3352_58756" x1="42.5219" y1="18.4238" x2="36" y2="187.5" gradientUnits="userSpaceOnUse">
<stop stop-color="white"/>
<stop offset="1" stop-color="white" stop-opacity="0"/>
</linearGradient>
</defs>
</svg>
